HIERARCHY
ROOT SpineBase
{
  OFFSET 0.000000 0.000000 0.000000
  CHANNELS 6 Xposition Yposition Zposition Zrotation Xrotation Yrotation
  JOINT SpineMid
  {
    OFFSET 0.000000 29.406648 -0.000000
    CHANNELS 3 Zrotation Xrotation Yrotation
    JOINT SpineShoulder
    {
      OFFSET 0.175847 21.862219 -0.683403
      CHANNELS 3 Zrotation Xrotation Yrotation
      JOINT Neck
      {
        OFFSET 0.105789 7.238626 -0.513396
        CHANNELS 3 Zrotation Xrotation Yrotation
        JOINT Head
        {
          OFFSET -4.062183 13.386608 -1.159150
          CHANNELS 3 Zrotation Xrotation Yrotation
          End Site
          {
            OFFSET 0 0 0
          }
        }
      }
      JOINT ShoulderLeft
      {
        OFFSET -15.838903 -4.589253 6.557798
        CHANNELS 3 Zrotation Xrotation Yrotation
        JOINT ElbowLeft
        {
          OFFSET -0.917537 -26.552849 2.220936
          CHANNELS 3 Zrotation Xrotation Yrotation
          JOINT WristLeft
          {
            OFFSET 0.474559 -19.190075 -5.754687
            CHANNELS 3 Zrotation Xrotation Yrotation
            JOINT HandLeft
            {
              OFFSET 1.073472 -3.717012 -0.945614
              CHANNELS 3 Zrotation Xrotation Yrotation
              JOINT HandTipLeft
              {
                OFFSET 1.302771 -7.032887 -0.861421
                CHANNELS 3 Zrotation Xrotation Yrotation
                End Site
                {
                  OFFSET 0 0 0
                }
              }
              JOINT ThumbLeft
              {
                OFFSET -2.427883 -1.410622 -2.170388
                CHANNELS 3 Zrotation Xrotation Yrotation
                End Site
                {
                  OFFSET 0 0 0
                }
              }
            }
          }
        }
      }
      JOINT ShoulderRight
      {
        OFFSET 14.161469 -3.025154 -7.865692
        CHANNELS 3 Zrotation Xrotation Yrotation
        JOINT ElbowRight
        {
          OFFSET 5.888007 -24.654177 -1.773587
          CHANNELS 3 Zrotation Xrotation Yrotation
          JOINT WristRight
          {
            OFFSET -1.762657 -19.280479 -5.103131
            CHANNELS 3 Zrotation Xrotation Yrotation
            JOINT HandRight
            {
              OFFSET -1.631143 -6.689818 -0.892078
              CHANNELS 3 Zrotation Xrotation Yrotation
              JOINT HandTipRight
              {
                OFFSET -0.908541 -7.152326 0.277463
                CHANNELS 3 Zrotation Xrotation Yrotation
                End Site
                {
                  OFFSET 0 0 0
                }
              }
              JOINT ThumbRight
              {
                OFFSET -3.175101 0.233410 -1.213915
                CHANNELS 3 Zrotation Xrotation Yrotation
                End Site
                {
                  OFFSET 0 0 0
                }
              }
            }
          }
        }
      }
    }
  }
  JOINT HipLeft
  {
    OFFSET -6.467079 0.353843 -0.679908
    CHANNELS 3 Zrotation Xrotation Yrotation
    JOINT KneeLeft
    {
      OFFSET 6.373949 -30.282114 6.956906
      CHANNELS 3 Zrotation Xrotation Yrotation
      JOINT AnkleLeft
      {
        OFFSET 6.645624 -30.337978 3.495162
        CHANNELS 3 Zrotation Xrotation Yrotation
        JOINT FootLeft
        {
          OFFSET -0.868726 -5.324004 -9.437417
          CHANNELS 3 Zrotation Xrotation Yrotation
          End Site
          {
            OFFSET 0 0 0
          }
        }
      }
    }
  }
  JOINT HipRight
  {
    OFFSET 7.062582 1.387207 -5.914129
    CHANNELS 3 Zrotation Xrotation Yrotation
    JOINT KneeRight
    {
      OFFSET 8.006043 -26.483835 2.918343
      CHANNELS 3 Zrotation Xrotation Yrotation
      JOINT AnkleRight
      {
        OFFSET 3.015101 -34.613624 7.338436
        CHANNELS 3 Zrotation Xrotation Yrotation
        JOINT FootRight
        {
          OFFSET -2.944493 -7.660057 -4.101868
          CHANNELS 3 Zrotation Xrotation Yrotation
          End Site
          {
            OFFSET 0 0 0
          }
        }
      }
    }
  }
}
MOTION
Frames: 6
Frame Time: 0.033333
-30.590962 68.338689 343.632351 0.000000 -0.000000 21.149961 0.000000 0.000000 -21.149961 -0.000000 0.000000 0.000000 -0.000000 0.000000 0.000000 0.000000 0.000000 0.000000 -0.000000 0.000000 0.000000 -0.000000 0.000000 0.000000 -0.000000 0.000000 0.000000 -0.000000 0.000000 0.000000 0.000000 0.000000 0.000000 0.000000 0.000000 0.000000 -0.000000 0.000000 0.000000 -0.000000 0.000000 0.000000 -0.000000 0.000000 0.000000 -0.000000 0.000000 0.000000 0.000000 0.000000 0.000000 0.000000 0.000000 0.000000 0.000000 0.000000 -21.149961 -0.000000 0.000000 0.000000 -0.000000 0.000000 0.000000 0.000000 0.000000 0.000000 0.000000 0.000000 -21.149961 -0.000000 0.000000 0.000000 -0.000000 0.000000 0.000000 0.000000 0.000000 0.000000
-30.612515 68.340000 343.609775 -0.061233 0.067914 21.048642 0.032756 -0.085375 -21.048582 -0.000000 0.000000 0.000000 -0.000000 0.000000 0.000000 0.000000 0.000000 0.000000 -0.000000 0.000000 0.000000 -0.000000 0.000000 0.000000 -1.236724 -0.701187 0.105054 -0.536216 -1.409713 -0.306609 0.000000 0.000000 0.000000 0.000000 0.000000 0.000000 -0.000000 0.000000 0.000000 -0.000000 0.000000 0.000000 2.912730 0.288241 -0.468847 -4.611159 0.932459 0.237772 0.000000 0.000000 0.000000 0.000000 0.000000 0.000000 0.032756 -0.085375 -21.048582 -0.000000 0.000000 0.000000 4.543634 -6.295242 -7.555720 0.000000 0.000000 0.000000 0.032756 -0.085375 -21.048582 -0.000000 0.000000 0.000000 1.159485 0.936993 -0.990068 0.000000 0.000000 0.000000
-30.625917 68.343044 343.590695 -0.112978 0.131224 20.977284 0.058513 -0.162973 -20.977072 -0.000000 0.000000 0.000000 -0.000000 0.000000 0.000000 0.000000 0.000000 0.000000 -0.000000 0.000000 0.000000 -0.000000 0.000000 0.000000 -2.128127 -1.264952 0.153890 -1.256167 -2.615294 -0.550680 0.000000 0.000000 0.000000 0.000000 0.000000 0.000000 -0.000000 0.000000 0.000000 -0.000000 0.000000 0.000000 5.124379 0.198211 -0.748972 -7.857591 2.275827 0.345121 0.000000 0.000000 0.000000 0.000000 0.000000 0.000000 0.058513 -0.162973 -20.977072 -0.486583 -0.781112 -0.230516 8.468437 -11.678511 -13.923783 0.000000 0.000000 0.000000 0.058513 -0.162973 -20.977072 -0.000000 0.000000 0.000000 2.195180 1.694748 -1.858414 0.000000 0.000000 0.000000
-30.631166 68.347822 343.575110 -0.155243 0.189936 20.935868 0.077127 -0.232868 -20.935454 -0.000000 0.000000 0.000000 -0.000000 0.000000 0.000000 0.000000 0.000000 0.000000 -0.000000 0.000000 0.000000 -0.000000 0.000000 0.000000 -2.749374 -1.726126 0.161348 -2.034678 -3.527417 -0.717152 0.000000 0.000000 0.000000 0.000000 0.000000 0.000000 -0.000000 0.000000 0.000000 0.787082 0.488948 -0.256257 5.911781 -0.710800 -0.524800 -9.750529 4.053014 0.349154 0.000000 0.000000 0.000000 0.000000 0.000000 0.000000 0.077127 -0.232868 -20.935454 -0.632437 -1.058350 -0.310589 10.895665 -16.681505 -18.999342 0.000000 0.000000 0.000000 0.077127 -0.232868 -20.935454 -0.000000 0.000000 0.000000 3.104605 2.283360 -2.601492 0.000000 0.000000 0.000000
-30.628264 68.354334 343.563021 -0.188035 0.244056 20.924455 0.088475 -0.295115 -20.923827 -0.000000 0.000000 0.000000 -0.000000 0.000000 0.000000 0.000000 0.000000 0.000000 -0.000000 0.000000 0.000000 -0.000000 0.000000 0.000000 -3.147516 -2.108753 0.135627 -2.783136 -4.082027 -0.788279 0.000000 0.000000 0.000000 0.000000 0.000000 0.000000 -0.000000 0.000000 0.000000 1.147239 0.291453 -0.333303 6.523704 -1.315817 -0.340650 -10.271643 6.290152 0.225766 0.000000 0.000000 0.000000 0.000000 0.000000 0.000000 0.088475 -0.295115 -20.923827 -0.712962 -1.260612 -0.366169 12.334836 -20.457960 -22.612753 0.000000 0.000000 0.000000 0.088475 -0.295115 -20.923827 -0.000000 0.000000 0.000000 3.886596 2.711915 -3.217036 0.000000 0.000000 0.000000
-30.617210 68.362579 343.554428 -0.211359 0.293590 20.943187 0.092456 -0.349742 -20.942363 -0.000000 0.000000 0.000000 -0.000000 0.000000 0.000000 0.000000 0.000000 0.000000 -0.000000 0.000000 0.000000 -0.000000 0.000000 0.000000 -3.350669 -2.429877 0.080844 -3.442395 -4.235870 -0.747863 0.000000 0.000000 0.000000 0.000000 0.000000 0.000000 -0.000000 0.000000 0.000000 1.556361 -0.086848 -0.403422 6.495711 -2.141390 0.024618 -9.360608 9.018573 -0.108172 0.000000 0.000000 0.000000 0.000000 0.000000 0.000000 0.092456 -0.349742 -20.942363 -0.727889 -1.388109 -0.396758 13.050385 -22.910012 -24.824131 0.000000 0.000000 0.000000 0.092456 -0.349742 -20.942363 -0.191185 -0.847893 -0.115642 4.728534 3.842629 -3.658267 0.000000 0.000000 0.000000
